# xmcd
#
# Track frame offsets: 
#        150
#        12903
#        25563
#        36380
#        47773
#        57021
#        66642
#        78640
#        87673
#        97807
#        108158
#
# Disc length: 1581 seconds
#
# Revision: 0
# Processed by: cddbd v1.5.2PL0 Copyright (c) Steve Scherf et al.
# Submitted via: ExactAudioCopyFreeDBPlugin 1.0
#
DISCID=88062b0b
DTITLE=Porter Wagoner and Dolly Parton - Porter Wayne and Dolly Rebecca
DYEAR=1970
DGENRE=Country
TTITLE0=Forty Miles From Poplar Bluff
TTITLE1=Tomorrow Is Forever
TTITLE2=Just Someone I Used To Know
TTITLE3=Each Season Changes You
TTITLE4=We Can't Let This Happen To Us
TTITLE5=Mendy Never Sleeps
TTITLE6=Silver Sandals
TTITLE7=No Love Left
TTITLE8=It Might As Well Be Me
TTITLE9=Run That By Me One More Time
TTITLE10=I'm Wasting Your Time And You're Wasting Mine
EXTD=
EXTT0=
EXTT1=
EXTT2=
EXTT3=
EXTT4=
EXTT5=
EXTT6=
EXTT7=
EXTT8=
EXTT9=
EXTT10=
PLAYORDER=
